<svg version="1.1" preserveAspectRatio="xMidYMid meet" xmlns="http://www.w3.org/2000/svg" xmlns:xlink="http://www.w3.org/1999/xlink" viewBox="-273.063 0.000 1546.125 1000.000">
	<defs>
		<g transform="matrix(2.472, 0.000, 0.000, 2.472, 340.552, 253.154)" fill="#fff" stroke="none" stroke-width="1" id="def-f385b62f-bbb4-414c-bb5d-b573fdd5af88">
			<g transform="translate(0.500, 0.700)">
				<path d=" M120,43.1 V16.6 c0 -1.1 -0.9 -2 -2 -2 h-6.8 l-9.3 -9.3 c-0.4 -0.4 -0.9 -0.6 -1.4 -0.6 H86.6 c-1.3 -3.6 -5.3 -5.5 -9 -4.2 s-5.5,5.3 -4.2,8.9 c1.3,3.6,5.3,5.5,9,4.2 c2.2 -0.8,3.9 -2.7,4.4 -5 h12.9 L109,18 c0.4,0.4,0.9,0.6,1.4,0.6 h5.6 v33.5 l-3.9,3.9 h-5.1 C105.8,32.3,85.7,14,62,15.1 c-22.2,1 -39.9,18.7 -41,40.9 h-5.1 L12,52.1 V18.6 h5.6 c0.5,0,1 -0.2,1.4 -0.6 l9.3 -9.3 h12.9 c0.9,3.8,4.7,6.1,8.4,5.2 c3.8 -0.9,6.1 -4.7,5.2 -8.4 s-4.7 -6.1 -8.4 -5.2 c-2.3,0.5 -4.2,2.2 -5,4.4 H27.5 c-0.5,0 -1,0.2 -1.4,0.6 l-9.3,9.3 H10 c-1.1,0 -2,0.9 -2,2 v26.5 l-7.3,6 C0.3,49.4,0,50,0,50.6 v65.6 c0,1.1,0.9,2,2,2 h20 c0.5,0,1 -0.2,1.4 -0.6 l10.9 -10.9 H95 c1.1,0,2 -0.9,2 -2 s-0.9 -2 -2 -2 H33.5 c-0.5,0 -1,0.2 -1.4,0.6 l-10.9,10.9 H4 V51.5 l4 -3.3 v4.6 c0,0.5,0.2,1,0.6,1.4 l5.1,5.1 c0.4,0.4,0.9,0.6,1.4,0.6 h5.9 c0.1,3,0.6,6,1.4,9 h-5.3 c-0.5,0 -1.1,0.2 -1.4,0.6 l-7.1,7.3 C8.2,77.2,8,77.7,8,78.3 v28.7 c0,1.1,0.9,2,2,2 s2 -0.9,2 -2 V79.1 l6 -6.1 h5.7 c8.3,22.2,33,33.5,55.3,25.3 c11.7 -4.3,20.9 -13.6,25.3 -25.3 h5.7 l6,6.1 v27.8 c0,1.1,0.9,2,2,2 s2 -0.9,2 -2 V78.3 c0 -0.5 -0.2 -1 -0.6 -1.4 l-7.1 -7.3 c-0.4 -0.4 -0.9 -0.6 -1.4 -0.6 h-5.3 c0.8 -2.9,1.2 -5.9,1.4 -9 h5.9 c0.5,0,1 -0.2,1.4 -0.6 l5.1 -5.1 c0.4 -0.4,0.6 -0.9,0.6 -1.4 v-4.6 l4,3.3 v60.6 h-18 c-0.8,0.3 -1.6,0.6 -2.4,1.1 l-10.9,10.9 H32 c-1.1,0 -2,0.9 -2,2 c0,1.1,0.9,2,2,2 h61.5 c0.5,0,1 -0.2,1.4 -0.6 l11.4 -11.4 H126 c1.1,0,2 -0.9,2 -2 V50.6 c0 -0.6 -0.3 -1.2 -0.7 -1.5 L120,43.1 z M80,10.1 c-1.7,0 -3 -1.3 -3 -3 s1.3 -3,3 -3 s3,1.3,3,3 C83,8.8,81.7,10.1,80,10.1 z M48,4.1 c1.7,0,3,1.3,3,3 s-1.3,3 -3,3 s-3 -1.3 -3 -3 C45,5.5,46.3,4.1,48,4.1 z M93,84 c-14.3,16 -39,17.3 -55,3 c-1.1 -0.9 -2.1 -2 -3 -3 v-9.7 l11.5 -11.1 c2.3,9.6,12,15.6,21.7,13.2 c6.6 -1.6,11.7 -6.7,13.3 -13.2 L93,74.3 V84 z M47.4,54.2 c0.1,0,0.1,0,0.2 -0.1 c5.3 -1.1,10.8 -1.7,16.2 -1.6 c5,0,9.9,0.4,14.8,1.3 c0.5,0.1,1,0.2,1.4,0.3 c3.6,0.8,5.2,1.8,5.7,2.2 c-1.1,0.8 -2.4,1.4 -3.7,1.7 v-2.5 h-4 V59 c0,7.7 -6.3,14 -14,14 s-14 -6.3 -14 -14 v-3.5 h-4 v2.6 c-1.5 -0.3 -2.8 -0.9 -4.1 -1.8 C42.4,55.9,43.9,55,47.4,54.2 z M43.7,51.1 l4.7 -13.3 c2.2 -6.2,7 -10.2,12.3 -10.2 h6.7 c5.3,0,10.1,4,12.3,10.2 l4.7,13.4 c-1.1 -0.4 -2.3 -0.7 -3.4 -1 c-0.5 -0.1 -1 -0.2 -1.6 -0.3 c-5.1 -0.9 -10.3 -1.4 -15.6 -1.4 c-5.7 -0.1 -11.5,0.5 -17.1,1.7 l-0.2,0 C45.5,50.5,44.5,50.8,43.7,51.1 L43.7,51.1 z M97,78.7 v-5.2 c0 -0.5 -0.2 -1.1 -0.6 -1.4 L85.1,61.2 c3.2 -1.3,4.7 -2.9,4.7 -4.9 l0,0 c0.2 -0.5,0.2 -1,0.1 -1.5 l-6.5 -18.4 c-2.8 -7.8 -9.1 -12.9 -16.1 -12.9 h-6.7 c-7,0 -13.3,5.1 -16.1,12.9 l-6.5,18.4 c0,0.1,0,0.2 -0.1,0.2 c-0.1,0.4 -0.2,0.8 -0.2,1.2 c0,2,1.6,3.7,5,5 L31.6,72.1 c-0.4,0.4 -0.6,0.9 -0.6,1.4 v5.2 C19.5,60.5,25,36.5,43.2,25 S85.5,19,97,37.2 C105,49.9,105,66,97,78.7 z"/>
				<path d=" M35,115.9 c0,1.1,0.9,2,2,2 h0.4 l-0.8,1.1 c-0.6,0.9 -0.4,2.1,0.5,2.8 c0.9,0.6,2.1,0.4,2.8 -0.5 l1.4 -1.9 l1.4,1.9 c0.6,0.9,1.9,1.1,2.8,0.5 c0.9 -0.6,1.1 -1.9,0.5 -2.8 l-0.8 -1.1 h0.4 c1.1,0,2 -0.9,2 -2 s-0.9 -2 -2 -2 h-0.4 l0.8 -1.1 c0.6 -0.9,0.4 -2.1 -0.5 -2.8 c-0.9 -0.6 -2.1 -0.4 -2.8,0.5 c0,0,0,0,0,0 l-1.4,1.9 l-1.4 -1.9 c-0.6 -0.9 -1.9 -1.1 -2.8 -0.5 c-0.9,0.6 -1.1,1.9 -0.5,2.8 c0,0,0,0,0,0 l0.8,1.1 H37 C35.9,113.9,35,114.8,35,115.9 z"/>
				<path d=" M50.2,115.9 c0,1.1,0.9,2,2,2 h0.4 l-0.8,1.1 c-0.6,0.9 -0.4,2.1,0.5,2.8 c0.9,0.6,2.1,0.4,2.8 -0.5 l1.4 -1.9 l1.4,1.9 c0.6,0.9,1.9,1.1,2.8,0.5 c0.9 -0.6,1.1 -1.9,0.5 -2.8 l-0.8 -1.1 h0.4 c1.1,0,2 -0.9,2 -2 s-0.9 -2 -2 -2 h-0.4 l0.8 -1.1 c0.6 -0.9,0.4 -2.1 -0.5 -2.8 c-0.9 -0.6 -2.1 -0.4 -2.8,0.5 c0,0,0,0,0,0 l-1.4,1.9 l-1.4 -1.9 c-0.6 -0.9 -1.9 -1.1 -2.8 -0.5 c-0.9,0.6 -1.1,1.9 -0.5,2.8 c0,0,0,0,0,0 l0.8,1.1 h-0.4 C51.1,113.9,50.2,114.8,50.2,115.9 z"/>
				<path d=" M65.4,115.9 c0,1.1,0.9,2,2,2 h0.4 L67,119 c-0.6,0.9 -0.4,2.1,0.5,2.8 c0.9,0.6,2.1,0.4,2.8 -0.5 l1.4 -1.9 l1.4,1.9 c0.6,0.9,1.9,1.1,2.8,0.5 c0.9 -0.6,1.1 -1.9,0.5 -2.8 l-0.8 -1.1 h0.4 c1.1,0,2 -0.9,2 -2 s-0.9 -2 -2 -2 h-0.4 l0.8 -1.1 c0.6 -0.9,0.4 -2.1 -0.5 -2.8 c-0.9 -0.6 -2.1 -0.4 -2.8,0.5 c0,0,0,0,0,0 l-1.4,1.9 l-1.4 -1.9 c-0.6 -0.9 -1.9 -1.1 -2.8 -0.5 c-0.9,0.6 -1.1,1.9 -0.5,2.8 c0,0,0,0,0,0 l0.8,1.1 h-0.4 C66.3,113.9,65.4,114.8,65.4,115.9 z"/>
				<path d=" M80.6,115.9 c0,1.1,0.9,2,2,2 h0.4 l-0.8,1.1 c-0.6,0.9 -0.4,2.1,0.5,2.8 c0.9,0.6,2.1,0.4,2.8 -0.5 l1.4 -1.9 l1.4,1.9 c0.6,0.9,1.9,1.1,2.8,0.5 c0.9 -0.6,1.1 -1.9,0.5 -2.8 l-0.8 -1.1 H91 c1.1,0,2 -0.9,2 -2 s-0.9 -2 -2 -2 h-0.4 l0.8 -1.1 c0.6 -0.9,0.4 -2.1 -0.5 -2.8 c-0.9 -0.6 -2.1 -0.4 -2.8,0.5 c0,0,0,0,0,0 l-1.4,1.9 l-1.4 -1.9 c-0.6 -0.9 -1.9 -1.1 -2.8 -0.5 c-0.9,0.6 -1.1,1.9 -0.5,2.8 c0,0,0,0,0,0 l0.8,1.1 h-0.4 C81.5,113.9,80.6,114.8,80.6,115.9 z"/>
			</g>
		</g>
		<path d="M142.945,673.639 L119.086,662.247 L117.856,637.471 L111.382,634.380 L101.977,654.078 L83.481,645.247 L112.933,583.564 L145.023,598.886 Q156.305,604.273,160.212,612.384 Q164.118,620.495,159.305,630.575 L159.305,630.575 Q156.611,636.216,151.041,639.916 Q145.470,643.615,138.765,642.912 L138.765,642.912 L142.945,673.639 Z M128.890,626.728 Q131.572,628.008,134.166,626.976 Q136.760,625.943,138.747,621.781 L138.747,621.781 Q140.425,618.267,139.551,615.579 Q138.677,612.890,136.088,611.654 L136.088,611.654 L124.805,606.267 L117.608,621.341 L128.890,626.728 Z M172.187,685.383 L195.359,621.077 L240.961,637.509 L235.750,651.971 L209.527,642.521 L205.775,652.934 L228.238,661.028 L223.027,675.490 L200.467,667.361 L196.680,677.869 L223.001,687.353 L217.790,701.815 L172.187,685.383 Z M273.658,719.487 Q265.624,717.400,259.904,714.962 Q254.185,712.523,250.116,709.031 L250.116,709.031 L254.908,690.582 Q258.789,695.614,264.139,699.068 Q269.488,702.522,274.349,703.785 L274.349,703.785 Q277.820,704.686,280.001,704.035 Q282.182,703.384,282.929,700.508 L282.929,700.508 Q283.470,698.425,281.312,696.541 Q279.155,694.657,273.792,691.252 L273.792,691.252 Q271.566,690.039,268.404,687.947 L268.404,687.947 Q262.524,684.090,259.787,678.932 Q257.050,673.774,259.060,666.038 L259.060,666.038 Q260.735,659.591,265.199,655.244 Q269.663,650.898,276.698,649.496 Q283.732,648.094,292.758,650.439 L292.758,650.439 Q298.809,652.010,303.163,654.200 Q307.518,656.390,311.488,659.856 L311.488,659.856 L306.593,678.702 Q303.699,674.351,298.740,670.415 Q293.780,666.480,289.415,665.346 L289.415,665.346 Q285.944,664.445,283.364,665.204 Q280.785,665.963,280.037,668.840 L280.037,668.840 Q279.342,671.518,281.387,673.426 Q283.433,675.333,288.575,678.363 L288.575,678.363 Q289.045,678.591,290.430,679.374 L290.430,679.374 Q299.157,684.500,302.651,689.801 Q306.144,695.103,304.006,703.335 L304.006,703.335 Q302.280,709.981,297.878,714.290 Q293.476,718.600,287.138,719.971 Q280.800,721.342,273.658,719.487 L273.658,719.487 Z M329.386,730.768 L340.400,663.308 L388.239,671.119 L385.762,686.290 L358.252,681.798 L356.469,692.721 L380.034,696.569 L377.557,711.740 L353.891,707.876 L352.091,718.900 L379.702,723.408 L377.225,738.579 L329.386,730.768 Z M455.230,745.454 L452.199,733.250 L428.778,731.775 L424.342,743.510 L405.421,742.319 L434.876,675.684 L457.581,677.114 L476.196,746.774 L455.230,745.454 Z M434.179,717.740 L448.498,718.641 L442.659,695.581 L434.179,717.740 Z M570.986,743.814 L544.575,745.042 L531.789,723.785 L524.623,724.118 L525.637,745.923 L505.163,746.875 L501.989,678.595 L537.510,676.943 Q549.999,676.363,557.273,681.667 Q564.547,686.971,565.066,698.129 L565.066,698.129 Q565.357,704.374,562.194,710.266 Q559.031,716.158,552.789,718.705 L552.789,718.705 L570.986,743.814 Z M536.441,709.104 Q539.410,708.966,541.208,706.830 Q543.007,704.695,542.793,700.088 L542.793,700.088 Q542.612,696.198,540.572,694.241 Q538.531,692.284,535.665,692.418 L535.665,692.418 L523.176,692.998 L523.952,709.684 L536.441,709.104 Z M633.151,737.366 Q616.322,739.852,606.382,732.515 Q596.441,725.178,593.775,707.133 L593.775,707.133 Q591.155,689.391,598.252,679.227 Q605.348,669.063,622.684,666.502 L622.684,666.502 Q633.025,664.975,645.316,668.236 L645.316,668.236 L647.876,685.571 Q636.690,679.972,627.769,681.290 L627.769,681.290 Q619.963,682.443,616.531,687.612 Q613.099,692.780,614.776,704.135 L614.776,704.135 Q616.423,715.286,621.282,719.075 Q626.140,722.863,634.757,721.591 L634.757,721.591 Q638.204,721.081,642.621,718.720 Q647.037,716.358,651.785,712.031 L651.785,712.031 L654.345,729.367 Q650.807,732.065,644.716,734.311 Q638.626,736.558,633.151,737.366 L633.151,737.366 Z M687.250,726.217 L670.340,659.988 L690.198,654.917 L696.714,680.436 L716.374,675.416 L709.859,649.897 L729.717,644.827 L746.628,711.056 L726.769,716.126 L720.431,691.303 L700.771,696.323 L707.109,721.146 L687.250,726.217 Z M779.567,700.522 L756.099,636.323 L801.625,619.681 L806.903,634.118 L780.723,643.688 L784.523,654.083 L806.949,645.886 L812.226,660.323 L789.704,668.556 L793.539,679.047 L819.815,669.442 L825.093,683.879 L779.567,700.522 Z M915.877,642.132 L892.103,653.703 L871.954,639.233 L865.504,642.372 L875.056,661.999 L856.627,670.968 L826.715,609.508 L858.689,593.946 Q869.931,588.475,878.709,590.471 Q887.488,592.467,892.376,602.511 L892.376,602.511 Q895.112,608.131,894.536,614.794 Q893.961,621.456,889.234,626.264 L889.234,626.264 L915.877,642.132 Z M870.422,623.909 Q873.095,622.608,873.902,619.935 Q874.710,617.263,872.692,613.116 L872.692,613.116 Q870.988,609.615,868.340,608.624 Q865.693,607.633,863.113,608.889 L863.113,608.889 L851.871,614.360 L859.181,629.380 L870.422,623.909 Z" id="def-756a53d3-fb6a-4542-b587-c4aca75e07f7"/>
		<mask id="mask-8719d7a2-500f-4c17-88c4-c636eac25f14" x="324.607" y="237.209" width="350.786" height="351.774" maskUnits="userSpaceOnUse" stroke-width="0">
			<rect x="340.552" y="253.154" width="318.896" height="319.885" fill="#000"/>
			<use xlink:href="#def-f385b62f-bbb4-414c-bb5d-b573fdd5af88" fill="#fff" stroke="#fff"/>
		</mask>
		<mask id="mask-452a836b-8956-4c31-bedf-eeb3a2c5b85b" x="57.351" y="557.434" width="885.298" height="215.575" maskUnits="userSpaceOnUse" stroke-width="0">
			<rect x="67.150" y="567.233" width="865.700" height="195.978" fill="#000"/>
			<use xlink:href="#def-756a53d3-fb6a-4542-b587-c4aca75e07f7" fill="#fff" stroke="#fff"/>
		</mask>
	</defs>
	<g mask="url(#mask-8719d7a2-500f-4c17-88c4-c636eac25f14)">
		<rect x="340.552" y="253.154" width="318.896" height="319.885" fill="#d46667"/>
	</g>
	<g opacity="0">
		<rect fill="none" stroke="#fff" stroke-dasharray="11.07010739856802" stroke-dashoffset="0" stroke-width="1.8450178997613365" x="-263.063" y="10" width="1526.125" height="980"/>
		<rect fill="none" stroke="#000" stroke-dasharray="11.07010739856802" stroke-dashoffset="11.07010739856802" stroke-width="1.8450178997613365" x="-263.063" y="10" width="1526.125" height="980"/>
	</g>
	<g opacity="0">
		<rect fill="none" stroke="#fff" stroke-dasharray="5.53505369928401" stroke-dashoffset="0" stroke-width="1.8450178997613365"/>
		<rect fill="none" stroke="#000" stroke-dasharray="5.53505369928401" stroke-dashoffset="5.53505369928401" stroke-width="1.8450178997613365"/>
	</g>
</svg>